<?xml version="1.0" encoding="UTF-8"?>
<svg width="88.379mm" height="41.297mm" version="1.1" viewBox="0 0 88.379 41.297" xmlns="http://www.w3.org/2000/svg" xmlns:cc="http://creativecommons.org/ns#" xmlns:dc="http://purl.org/dc/elements/1.1/" xmlns:rdf="http://www.w3.org/1999/02/22-rdf-syntax-ns#">
 <defs>
  <filter id="filter874" x="-7.3181e-7" y="-3.3311e-6" width="1" height="1" color-interpolation-filters="sRGB">
   <feGaussianBlur stdDeviation="1.1124609e-05"/>
  </filter>
  <filter id="filter1003" x="-3.5e-5" y="-2.625e-5" width="1.0001" height="1.0001" color-interpolation-filters="sRGB">
   <feGaussianBlur stdDeviation="0.00033183155"/>
  </filter>
 </defs>
 <metadata>
  <rdf:RDF>
   <cc:Work rdf:about="">
    <dc:format>image/svg+xml</dc:format>
    <dc:type rdf:resource="http://purl.org/dc/dcmitype/StillImage"/>
    <dc:title/>
   </cc:Work>
  </rdf:RDF>
 </metadata>
 <g transform="translate(-50.139 -38.883)">
  <path class="active-path" transform="matrix(1.3611 0 0 1.3611 -25.34 -21.497)" d="m117.54 55.739h-0.94809v-3.7924c0-4.1831-3.4016-7.5847-7.5847-7.5847s-7.5847 3.4016-7.5847 7.5847v3.7924h-0.94809c-1.5675 0-2.8443 1.2754-2.8443 2.8443v13.273c0 1.5689 1.2768 2.8443 2.8443 2.8443h17.066c1.5675 0 2.8443-1.2754 2.8443-2.8443v-13.273c0-1.5689-1.2768-2.8443-2.8443-2.8443zm-13.589-3.7924c0-2.7887 2.2677-5.0564 5.0564-5.0564s5.0564 2.2677 5.0564 5.0564v3.7924h-10.113z" fill="#fff" filter="url(#filter1003)" stroke-width=".059256" data-old_color="#000000" data-original="#000000"/>
  <text transform="matrix(2.1117 0 0 2.1117 -111.85 -68.839)" x="76.464584" y="68.527084" fill="#000000" filter="url(#filter874)" font-family="Baskerville" font-size="10.583px" font-weight="bold" stroke-width=".26458" style="line-height:1.25" xml:space="preserve"><tspan x="76.464584" y="68.527084" font-family="Baskerville" font-size="11.289px" font-weight="bold" stroke-width=".26458"><tspan fill="#ffffff">LOG</tspan> <tspan fill="#4c4c55">IN</tspan></tspan></text>
  <text x="100.0125" y="69.585411" fill="#000000" font-family="sans-serif" font-size="11.289px" stroke-width=".26458" style="line-height:1.25" xml:space="preserve"><tspan x="100.0125" y="69.585411" font-size="11.289px" stroke-width=".26458"/></text>
 </g>
</svg>
